<svg xmlns="http://www.w3.org/2000/svg" xmlns:xlink="http://www.w3.org/1999/xlink" viewBox="0 0 1792 1417" xml:space="preserve">
<path d="M704,132c-102,0-197.3,17.3-286,52s-159.2,81.7-211.5,141S128,448,128,516c0,54.7,17.7,107.3,53,158s85,94.7,149,132l97,56
	l-35,84c22.7-13.3,43.3-26.3,62-39l44-31l53,10c52,9.3,103,14,153,14c102,0,197.3-17.3,286-52s159.2-81.7,211.5-141
	s78.5-123,78.5-191s-26.2-131.7-78.5-191S1078.7,218.6,990,184S806,132,704,132z M704,4c127.3,0,245.2,22.8,353.5,68.5
	S1251.3,180.3,1314,259s94,164.3,94,257s-31.3,178.3-94,257s-148.2,140.8-256.5,186.5S831.3,1028,704,1028c-57.3,0-116-5.3-176-16
	c-82.7,58.7-175.3,101.3-278,128c-24,6-52.7,11.3-86,16h-3c-7.3,0-14.2-2.7-20.5-8s-10.2-12.3-11.5-21c-0.7-2-1-4.2-1-6.5
	s0.2-4.5,0.5-6.5s1-4,2-6l2.5-5l3.5-5.5l4-5l4.5-5l4-4.5c3.3-4,11-12.3,23-25s20.7-22.5,26-29.5c5.3-7,12.8-16.7,22.5-29
	s18-25.2,25-38.5s13.8-28,20.5-44c-82.7-48-147.7-107-195-177S0,595.3,0,516c0-92.7,31.3-178.3,94-257S242.2,118.1,350.5,72.5
	S576.7,4,704,4z M1526,1173c6.7,16,13.5,30.7,20.5,44s15.3,26.2,25,38.5s17.2,22,22.5,29s14,16.8,26,29.5s19.7,21,23,25
	c0.7,0.7,2,2.2,4,4.5s3.5,4,4.5,5s2.3,2.7,4,5s2.8,4.2,3.5,5.5l2.5,5l2,6l0.5,6.5l-1,6.5c-2,9.3-6.3,16.7-13,22s-14,7.7-22,7
	c-33.3-4.7-62-10-86-16c-102.7-26.7-195.3-69.3-278-128c-60,10.7-118.7,16-176,16c-180.7,0-338-44-472-132c38.7,2.7,68,4,88,4
	c107.3,0,210.3-15,309-45s186.7-73,264-129c83.3-61.3,147.3-132,192-212s67-164.7,67-254c0-51.3-7.7-102-23-152
	c86,47.3,154,106.7,204,178s75,148,75,230c0,80-23.7,154.8-71,224.5S1608.7,1125,1526,1173z"/>
</svg>
